<?xml version="1.0" encoding="UTF-8" standalone="no"?>
<!-- Created with Inkscape (http://www.inkscape.org/) -->

<svg
   width="987.62347"
   height="796.1239"
   viewBox="0 0 261.30871 210.64112"
   version="1.1"
   id="svg5"
   xml:space="preserve"
   inkscape:version="1.2.2 (b0a8486541, 2022-12-01)"
   sodipodi:docname="drawing.svg"
   inkscape:export-filename="full.png"
   inkscape:export-xdpi="96"
   inkscape:export-ydpi="96"
   xmlns:inkscape="http://www.inkscape.org/namespaces/inkscape"
   xmlns:sodipodi="http://sodipodi.sourceforge.net/DTD/sodipodi-0.dtd"
   xmlns="http://www.w3.org/2000/svg"
   xmlns:svg="http://www.w3.org/2000/svg"><sodipodi:namedview
     id="namedview7"
     pagecolor="#ffffff"
     bordercolor="#000000"
     borderopacity="0.25"
     inkscape:showpageshadow="2"
     inkscape:pageopacity="0.0"
     inkscape:pagecheckerboard="0"
     inkscape:deskcolor="#d1d1d1"
     inkscape:document-units="px"
     showgrid="false"
     inkscape:zoom="0.56423732"
     inkscape:cx="3909.7024"
     inkscape:cy="1745.7193"
     inkscape:window-width="1920"
     inkscape:window-height="1011"
     inkscape:window-x="0"
     inkscape:window-y="32"
     inkscape:window-maximized="1"
     inkscape:current-layer="layer3"
     showguides="true"><sodipodi:guide
       position="-903.85072,552.5846"
       orientation="0,1920"
       id="guide364"
       inkscape:locked="false" /><sodipodi:guide
       position="-395.85071,552.5846"
       orientation="1080,0"
       id="guide366"
       inkscape:locked="false" /><sodipodi:guide
       position="-395.85071,266.8346"
       orientation="0,-1920"
       id="guide368"
       inkscape:locked="false" /><sodipodi:guide
       position="-903.85072,266.8346"
       orientation="-1080,0"
       id="guide370"
       inkscape:locked="false" /><sodipodi:guide
       position="-649.85071,98.209088"
       orientation="-1,0"
       id="guide38639"
       inkscape:locked="false"
       inkscape:label=""
       inkscape:color="rgb(0,134,229)" /></sodipodi:namedview><defs
     id="defs2" /><g
     inkscape:groupmode="layer"
     id="layer3"
     inkscape:label="Layer 3"
     style="mix-blend-mode:exclusion"
     transform="translate(-903.85071,-341.94348)"><path
       style="mix-blend-mode:difference;fill:#a83b3b;fill-opacity:1;stroke-width:1.54537"
       d="m 1156.1708,545.63071 c -2.8392,-6.90402 -5.9417,-9.41805 -5.2375,-4.24397 0.9884,7.26121 -3.1408,2.92722 -7.7299,-8.1132 -12.2977,-29.58593 -19.1057,-52.18161 -15.3953,-51.09692 8.317,2.43136 8.9048,2.38741 7.3338,-0.54828 -0.8218,-1.53534 -3.887,-4.89256 -6.8117,-7.46047 -2.9247,-2.5679 -6.1155,-6.15983 -7.0907,-7.98206 -0.9752,-1.82221 -2.3676,-2.94573 -3.0942,-2.49668 -0.7266,0.44903 -6.9482,-5.32661 -13.8258,-12.83481 -20.6491,-22.54228 -22.2542,-18.63713 -2.4347,5.92343 23.6875,29.35374 26.5821,34.60806 15.4458,28.03752 -5.3832,-3.17623 -5.4745,-3.1802 -3.8627,-0.16863 3.8615,7.2154 -10.7978,3.05088 -15.5661,-4.42212 -1.3488,-2.11385 -1.5302,-1.8107 -0.9966,1.6655 0.9823,6.3987 -5.0982,5.69012 -11.9802,-1.39608 l -5.4832,-5.64586 v 4.87318 c 0,6.07749 -3.3218,6.45052 -8.4233,0.94597 -2.4882,-2.68483 -3.852,-3.29593 -4.311,-1.93171 -0.5478,1.62791 -1.1194,1.62583 -3.1032,-0.0111 -1.8068,-1.49104 -2.7153,-1.54792 -3.5352,-0.22138 -0.8059,1.30403 -1.468,1.22011 -2.4556,-0.31131 -0.9828,-1.52388 -1.6689,-1.6134 -2.5113,-0.32766 -0.6375,0.97294 -5.3315,2.01608 -10.4312,2.31805 l -9.2722,0.54904 0.4211,-6.95417 0.4217,-6.95417 -3.5122,4.11289 c -6.7646,7.9216 -22.3953,9.44419 -17.3122,1.68636 2.4803,-3.78533 2.467,-3.90535 -0.3025,-2.72908 -13.8665,5.88981 -13.6407,3.87275 1.7201,-15.36434 17.3081,-21.67579 20.5565,-28.59398 11.1516,-23.75017 -1.873,0.96465 -4.4486,2.24318 -5.7235,2.84116 -1.2749,0.59801 -2.3181,2.05461 -2.3181,3.23691 0,2.26799 -4.9244,5.14202 -7.996,4.66674 -0.9981,-0.15437 -2.2619,1.12845 -2.8086,2.85083 -0.7006,2.2069 -2.3314,3.13113 -5.5259,3.13113 -2.4926,0 -4.53191,0.58901 -4.53191,1.3089 0,2.62829 -5.8514,7.96331 -8.734,7.96331 -1.6529,0 -4.1733,2.04942 -5.7013,4.63611 -1.5209,2.57484 -4.0497,4.6361 -5.6876,4.6361 -1.6219,0 -3.6317,1.27577 -4.4662,2.83502 -0.8345,1.55926 -3.9836,4.51478 -6.998,6.56782 -3.0144,2.05304 -5.4855,4.60208 -5.4913,5.66452 0,1.06244 -0.7445,1.9317 -1.6415,1.9317 -0.897,0 -5.591,4.01549 -10.4312,8.92331 -4.8402,4.90783 -11.0604,10.51851 -13.8227,12.46819 -2.7624,1.94968 -5.0225,4.49097 -5.0225,5.64732 0,1.15634 -0.9322,3.03466 -2.0716,4.17403 -1.1394,1.13936 -5.7196,8.83864 -10.1783,17.10946 -4.4587,8.27081 -8.4189,15.03784 -8.8004,15.03784 -0.3814,0 0.053,-1.39082 0.9605,-3.09074 0.9097,-1.6999 1.0517,-3.09073 0.3154,-3.09073 -0.7363,0 -2.269,1.73854 -3.4062,3.86342 -1.1372,2.12488 -2.7534,3.86342 -3.5914,3.86342 -0.8381,0 -0.5076,-1.21698 0.735,-2.70439 3.2379,-3.87679 6.1385,-11.18944 5.1028,-12.86511 -0.4859,-0.78624 -0.2856,-1.42956 0.4451,-1.42956 1.5833,0 5.9341,-8.69241 15.8564,-31.68008 15.5269,-35.97174 40.7308,-83.81713 45.0451,-85.51041 0.7218,-0.28335 1.3125,-1.38573 1.3125,-2.4498 0,-3.48669 13.3421,-15.56037 22.0814,-19.98201 4.7066,-2.38135 9.83481,-5.75842 11.39611,-7.50459 1.5613,-1.74616 5.4464,-4.8319 8.6338,-6.8572 8.9498,-5.68701 2.7869,-16.75319 -11.6102,-20.84713 -9.75381,-2.77354 -9.99921,-3.9325 -1.2311,-5.81292 4.3631,-0.93571 10.0418,-3.26045 12.6192,-5.16601 12.6543,-9.35573 42.8377,3.51072 38.7275,16.50855 -0.2833,0.89595 -0.067,1.18118 0.4801,0.63387 0.5473,-0.54733 2.6379,0.49583 4.6458,2.31807 6.2941,5.71221 13.4115,10.77825 19.1852,13.65564 3.0614,1.52567 7.6813,4.76429 10.2665,7.19694 2.5851,2.43265 7.5239,6.20542 10.9749,8.38397 10.0846,6.36608 26.4833,31.15682 27.2381,41.17705 0.133,1.76764 0.6912,3.21389 1.2402,3.21389 1.9431,0 11.961,27.43027 26.2441,71.85969 3.5522,11.0494 6.899,20.43751 7.4374,20.86248 0.5385,0.42499 1.1301,1.81583 1.315,3.09074 0.1852,1.27493 0.9939,5.44743 1.7976,9.27221 1.7595,8.37236 0.8387,10.17197 -1.7268,3.37519 -1.0215,-2.7063 -2.4412,-4.92055 -3.1551,-4.92055 -0.7137,0 -0.8015,0.80283 -0.1951,1.78404 1.5011,2.42896 2.1417,9.03493 0.8754,9.02775 -0.5625,-0.005 -2.3088,-3.13255 -3.8804,-6.95415 z m -243.62901,-7.72106 c 0,-0.42496 -0.3475,-0.77268 -0.7726,-0.77268 -0.4252,0 -0.7727,0.34771 -0.7727,0.77268 0,0.42499 0.3475,0.7727 0.7727,0.7727 0.4252,0 0.7726,-0.34771 0.7726,-0.7727 z m 245.19871,-1.80294 c -0.5665,-0.56661 -1.0302,-0.103 -1.0302,1.03026 0,1.13326 0.4637,1.59687 1.0302,1.03025 0.5666,-0.56661 0.5666,-1.49386 0,-2.06051 z m -7.2117,-5.15121 c -0.9877,-1.84551 -2.1354,-3.0159 -2.5504,-2.6009 -0.4152,0.41498 0.1368,2.18148 1.2258,3.92549 1.0891,1.74403 2.2367,2.91443 2.5503,2.6009 0.3136,-0.31352 -0.2383,-2.08 -1.2257,-3.92549 z m 6.1815,0.77268 c 0,-0.42497 -0.3475,-0.77268 -0.7727,-0.77268 -0.4252,0 -0.7727,0.34769 -0.7727,0.77268 0,0.42497 0.3475,0.77268 0.7727,0.77268 0.4252,0 0.7727,-0.3477 0.7727,-0.77268 z M 1031.9217,365.02835 c 5.5833,-4.15712 3.8436,-5.50287 -0.5049,-1.88282 -2.6151,2.20045 -5.7445,4.00079 -6.9542,4.00079 -1.2097,0 -2.1994,0.67359 -2.1994,1.49688 0,1.92223 4.2444,0.33373 9.6585,-3.61485 z m -11.204,-20.28988 c 0,-0.42495 -0.3475,-0.77268 -0.7726,-0.77268 -0.4252,0 -0.7727,0.3477 -0.7727,0.77268 0,0.42499 0.3475,0.77269 0.7727,0.77269 0.4252,0 0.7726,-0.3477 0.7726,-0.77269 z"
       id="path14164-4-8"
       sodipodi:nodetypes="csssssssssssssscsssssssscccsscssssscssssssscssssssscssscssssssssssssssssssssscssscsccsssssssssccsscsssssccsscsssss"
       inkscape:export-filename="../front/src/assets/favicon.png"
       inkscape:export-xdpi="96"
       inkscape:export-ydpi="96" /></g></svg>
