<?xml version="1.0" encoding="UTF-8" standalone="no"?>
<!-- Created with Inkscape (http://www.inkscape.org/) -->

<svg
   viewBox="0 0 299.70887 249.04113"
   version="1.1"
   id="bird"
   xmlns="http://www.w3.org/2000/svg"
   xmlns:svg="http://www.w3.org/2000/svg"><defs
     id="defs2"><filter
       inkscape:label="Neon"
       inkscape:menu="Bevels"
       inkscape:menu-tooltip="Neon light effect"
       x="-0.073476292"
       y="-0.091150291"
       width="1.1469526"
       height="1.1823006"
       style="color-interpolation-filters:sRGB"
       id="filter18000-6"><feGaussianBlur
         stdDeviation="1"
         result="result1"
         id="feGaussianBlur17978-0" /><feComposite
         in="result1"
         in2="result1"
         result="result4"
         operator="in"
         id="feComposite17980-6" /><feGaussianBlur
         stdDeviation="7"
         result="result6"
         in="result4"
         id="feGaussianBlur17982-2" /><feComposite
         operator="over"
         in="result6"
         in2="result4"
         result="result8"
         id="feComposite17984-61" /><feComposite
         operator="in"
         result="fbSourceGraphic"
         in="result6"
         in2="result8"
         id="feComposite17986-8" /><feSpecularLighting
         specularExponent="45"
         specularConstant="2"
         surfaceScale="2.5"
         lighting-color="#ffffff"
         result="result1"
         in="fbSourceGraphic"
         id="feSpecularLighting17990-7"><fePointLight
           z="20000"
           y="-10000"
           x="-5000"
           id="fePointLight17988-9" /></feSpecularLighting><feComposite
         operator="in"
         result="result2"
         in="result1"
         in2="fbSourceGraphic"
         id="feComposite17992-2" /><feComposite
         k3="1.5"
         k2="1.2"
         operator="arithmetic"
         result="result4"
         in="fbSourceGraphic"
         in2="result2"
         id="feComposite17994-0"
         k1="0"
         k4="0" /><feComposite
         operator="over"
         in2="result4"
         result="result9"
         id="feComposite17996-2" /><feBlend
         mode="screen"
         in2="result9"
         id="feBlend17998-3" /></filter><filter
       inkscape:collect="always"
       style="color-interpolation-filters:sRGB"
       id="filter31419-7"
       x="-0.0039734552"
       y="-0.0040836288"
       width="1.0079468"
       height="1.0081673"><feGaussianBlur
         inkscape:collect="always"
         stdDeviation="0.2040079"
         id="feGaussianBlur31421-5" /></filter><filter
       inkscape:collect="always"
       style="color-interpolation-filters:sRGB"
       id="filter31403-9"
       x="-0.0049308189"
       y="-0.016342545"
       width="1.0098616"
       height="1.032685"><feGaussianBlur
         inkscape:collect="always"
         stdDeviation="0.2040079"
         id="feGaussianBlur31405-2" /></filter><filter
       inkscape:collect="always"
       style="color-interpolation-filters:sRGB"
       id="filter31407-2"
       x="-0.0090639442"
       y="-0.019416437"
       width="1.0181279"
       height="1.0388329"><feGaussianBlur
         inkscape:collect="always"
         stdDeviation="0.2040079"
         id="feGaussianBlur31409-8" /></filter><filter
       inkscape:collect="always"
       style="color-interpolation-filters:sRGB"
       id="filter31411-9"
       x="-0.0037737801"
       y="-0.0079794172"
       width="1.0075476"
       height="1.0159588"><feGaussianBlur
         inkscape:collect="always"
         stdDeviation="0.2040079"
         id="feGaussianBlur31413-7" /></filter><filter
       inkscape:collect="always"
       style="color-interpolation-filters:sRGB"
       id="filter31415-3"
       x="-0.060821138"
       y="-0.057347633"
       width="1.1216424"
       height="1.1146953"><feGaussianBlur
         inkscape:collect="always"
         stdDeviation="0.2040079"
         id="feGaussianBlur31417-6" /></filter><filter
       inkscape:collect="always"
       style="color-interpolation-filters:sRGB"
       id="filter5953"
       x="-0.0047456478"
       y="-0.0049132281"
       width="1.0094913"
       height="1.0098265"><feGaussianBlur
         inkscape:collect="always"
         stdDeviation="0.2040079"
         id="feGaussianBlur5955" /></filter><filter
       inkscape:collect="always"
       style="color-interpolation-filters:sRGB"
       id="filter5957"
       x="-0.0047002998"
       y="-0.019478513"
       width="1.0094006"
       height="1.038957"><feGaussianBlur
         inkscape:collect="always"
         stdDeviation="0.2040079"
         id="feGaussianBlur5959" /></filter><filter
       inkscape:collect="always"
       style="color-interpolation-filters:sRGB"
       id="filter5961"
       x="-0.0092992047"
       y="-0.026742289"
       width="1.0185984"
       height="1.0534846"><feGaussianBlur
         inkscape:collect="always"
         stdDeviation="0.2040079"
         id="feGaussianBlur5963" /></filter></defs><g
     inkscape:groupmode="layer"
     id="layer3"
     inkscape:label="Layer 3"
     style="mix-blend-mode:exclusion"
     transform="translate(-1170.4628,-35.711868)">
     <path
       style="mix-blend-mode:difference;fill:#ffffff;fill-opacity:1;stroke-width:1.54537;filter:url(#filter18000-6)"
       d="m 1441.9829,258.59912 c -2.8392,-6.90402 -5.9417,-9.41805 -5.2375,-4.24397 0.9884,7.26121 -3.1408,2.92722 -7.7299,-8.1132 -12.2977,-29.58593 -19.1057,-52.18161 -15.3953,-51.09692 8.317,2.43136 8.9048,2.38741 7.3338,-0.54828 -0.8218,-1.53534 -3.887,-4.89256 -6.8117,-7.46047 -2.9247,-2.5679 -6.1155,-6.15983 -7.0907,-7.98206 -0.9752,-1.82221 -2.3676,-2.94573 -3.0942,-2.49668 -0.7266,0.44903 -6.9482,-5.32661 -13.8258,-12.83481 -20.6491,-22.54228 -22.2542,-18.63713 -2.4347,5.92343 23.6875,29.35374 26.5821,34.60806 15.4458,28.03752 -5.3832,-3.17623 -5.4745,-3.1802 -3.8627,-0.16863 3.8615,7.2154 -10.7978,3.05088 -15.5661,-4.42212 -1.3488,-2.11385 -1.5302,-1.8107 -0.9966,1.6655 0.9823,6.3987 -5.0982,5.69012 -11.9802,-1.39608 l -5.4832,-5.64586 v 4.87318 c 0,6.07749 -3.3218,6.45052 -8.4233,0.94597 -2.4882,-2.68483 -3.852,-3.29593 -4.311,-1.93171 -0.5478,1.62791 -1.1194,1.62583 -3.1032,-0.0111 -1.8068,-1.49104 -2.7153,-1.54792 -3.5352,-0.22138 -0.8059,1.30403 -1.468,1.22011 -2.4556,-0.31131 -0.9828,-1.52388 -1.6689,-1.6134 -2.5113,-0.32766 -0.6375,0.97294 -5.3315,2.01608 -10.4312,2.31805 l -9.2722,0.54904 0.4211,-6.95417 0.4217,-6.95417 -3.5122,4.11289 c -6.7646,7.9216 -22.3953,9.44419 -17.3122,1.68636 2.4803,-3.78533 2.467,-3.90535 -0.3025,-2.72908 -13.8665,5.88981 -13.6407,3.87275 1.7201,-15.36434 17.3081,-21.67579 20.5565,-28.59398 11.1516,-23.75017 -1.873,0.96465 -4.4486,2.24318 -5.7235,2.84116 -1.2749,0.59801 -2.3181,2.05461 -2.3181,3.23691 0,2.26799 -4.9244,5.14202 -7.996,4.66674 -0.9981,-0.15437 -2.2619,1.12845 -2.8086,2.85083 -0.7006,2.2069 -2.3314,3.13113 -5.5259,3.13113 -2.4926,0 -4.5319,0.58901 -4.5319,1.3089 0,2.62829 -5.8514,7.96331 -8.734,7.96331 -1.6529,0 -4.1733,2.04942 -5.7013,4.63611 -1.5209,2.57484 -4.0497,4.6361 -5.6876,4.6361 -1.6219,0 -3.6317,1.27577 -4.4662,2.83502 -0.8345,1.55926 -3.9836,4.51478 -6.998,6.56782 -3.0144,2.05304 -5.4855,4.60208 -5.4913,5.66452 0,1.06244 -0.7445,1.9317 -1.6415,1.9317 -0.897,0 -5.591,4.01549 -10.4312,8.92331 -4.8402,4.90783 -11.0604,10.51851 -13.8227,12.46819 -2.7624,1.94968 -5.0225,4.49097 -5.0225,5.64732 0,1.15634 -0.9322,3.03466 -2.0716,4.17403 -1.1394,1.13936 -5.7196,8.83864 -10.1783,17.10946 -4.4587,8.27081 -8.4189,15.03784 -8.8004,15.03784 -0.3814,0 0.053,-1.39082 0.9605,-3.09074 0.9097,-1.6999 1.0517,-3.09073 0.3154,-3.09073 -0.7363,0 -2.269,1.73854 -3.4062,3.86342 -1.1372,2.12488 -2.7534,3.86342 -3.5914,3.86342 -0.8381,0 -0.5076,-1.21698 0.735,-2.70439 3.2379,-3.87679 6.1385,-11.18944 5.1028,-12.86511 -0.4859,-0.78624 -0.2856,-1.42956 0.4451,-1.42956 1.5833,0 5.9341,-8.69241 15.8564,-31.68008 15.5269,-35.97174 40.7308,-83.81713 45.0451,-85.51041 0.7218,-0.28335 1.3125,-1.38573 1.3125,-2.4498 0,-3.48669 13.3421,-15.56037 22.0814,-19.98201 4.7066,-2.38135 9.8348,-5.758423 11.3961,-7.504593 1.5613,-1.74616 5.4464,-4.8319 8.6338,-6.8572 8.9498,-5.68701 2.7869,-16.75319 -11.6102,-20.84713 -9.7538,-2.77354 -9.9992,-3.9325 -1.2311,-5.81292 4.3631,-0.93571 10.0418,-3.26045 12.6192,-5.16601 12.6543,-9.35573 42.8377,3.51072 38.7275,16.50855 -0.2833,0.89595 -0.067,1.18118 0.4801,0.63387 0.5473,-0.54733 2.6379,0.49583 4.6458,2.31807 6.2941,5.71221 13.4115,10.77825 19.1852,13.65564 3.0614,1.52567 7.6813,4.76429 10.2665,7.19694 2.5851,2.432653 7.5239,6.205423 10.9749,8.383973 10.0846,6.36608 26.4833,31.15682 27.2381,41.17705 0.133,1.76764 0.6912,3.21389 1.2402,3.21389 1.9431,0 11.961,27.43027 26.2441,71.85969 3.5522,11.0494 6.899,20.43751 7.4374,20.86248 0.5385,0.42499 1.1301,1.81583 1.315,3.09074 0.1852,1.27493 0.9939,5.44743 1.7976,9.27221 1.7595,8.37236 0.8387,10.17197 -1.7268,3.37519 -1.0215,-2.7063 -2.4412,-4.92055 -3.1551,-4.92055 -0.7137,0 -0.8015,0.80283 -0.1951,1.78404 1.5011,2.42896 2.1417,9.03493 0.8754,9.02775 -0.5625,-0.005 -2.3088,-3.13255 -3.8804,-6.95415 z m -243.629,-7.72106 c 0,-0.42496 -0.3475,-0.77268 -0.7726,-0.77268 -0.4252,0 -0.7727,0.34771 -0.7727,0.77268 0,0.42499 0.3475,0.7727 0.7727,0.7727 0.4252,0 0.7726,-0.34771 0.7726,-0.7727 z m 245.1987,-1.80294 c -0.5665,-0.56661 -1.0302,-0.103 -1.0302,1.03026 0,1.13326 0.4637,1.59687 1.0302,1.03025 0.5666,-0.56661 0.5666,-1.49386 0,-2.06051 z m -7.2117,-5.15121 c -0.9877,-1.84551 -2.1354,-3.0159 -2.5504,-2.6009 -0.4152,0.41498 0.1368,2.18148 1.2258,3.92549 1.0891,1.74403 2.2367,2.91443 2.5503,2.6009 0.3136,-0.31352 -0.2383,-2.08 -1.2257,-3.92549 z m 6.1815,0.77268 c 0,-0.42497 -0.3475,-0.77268 -0.7727,-0.77268 -0.4252,0 -0.7727,0.34769 -0.7727,0.77268 0,0.42497 0.3475,0.77268 0.7727,0.77268 0.4252,0 0.7727,-0.3477 0.7727,-0.77268 z M 1317.7338,77.996757 c 5.5833,-4.15712 3.8436,-5.50287 -0.5049,-1.88282 -2.6151,2.20045 -5.7445,4.00079 -6.9542,4.00079 -1.2097,0 -2.1994,0.67359 -2.1994,1.49688 0,1.92223 4.2444,0.33373 9.6585,-3.61485 z m -11.204,-20.28988 c 0,-0.42495 -0.3475,-0.77268 -0.7726,-0.77268 -0.4252,0 -0.7727,0.3477 -0.7727,0.77268 0,0.42499 0.3475,0.77269 0.7727,0.77269 0.4252,0 0.7726,-0.3477 0.7726,-0.77269 z"
       id="path14164-4"
       sodipodi:nodetypes="csssssssssssssscsssssssscccsscssssscssssssscssssssscssscssssssssssssssssssssscssscsccsssssssssccsscsssssccsscsssss" />
       <path
       style="mix-blend-mode:exclusion;fill:none;fill-opacity:1;fill-rule:nonzero;stroke:none;stroke-width:0.710142;stroke-linecap:round;stroke-dasharray:none;stroke-opacity:1;filter:url(#filter5953)"
       d="m 1301.8715,67.249317 c 13.9448,-7.73792 27.08,6.75464 26.1805,16.20936 l 10.4919,2.85256 14.0612,8.78592 15.8859,9.774203 18.1036,14.93473 10.0819,12.99629 8.3672,31.90672"
       id="path18141-4"
       sodipodi:nodetypes="cccccccc"
       inkscape:label="le allodole - path"
       inkscape:export-filename="../front/src/assets/path18141.svg"
       inkscape:export-xdpi="96"
       inkscape:export-ydpi="96" /><path
       style="mix-blend-mode:exclusion;fill:none;fill-opacity:1;fill-rule:nonzero;stroke:none;stroke-width:0.710142;stroke-linecap:round;stroke-dasharray:none;stroke-opacity:1;filter:url(#filter5957)"
       d="m 1257.134,125.47308 19.1021,-7.3388 c 0,0 22.1817,-1.45628 30.0191,-4.54245 7.8559,-3.09347 14.8459,-19.199823 26.5789,-4.19496 l 28.4675,18.83662"
       id="path19879-5"
       sodipodi:nodetypes="ccscc"
       inkscape:label="il lavoro - path" /><path
       style="mix-blend-mode:exclusion;fill:none;fill-opacity:1;fill-rule:nonzero;stroke:none;stroke-width:0.710142;stroke-linecap:round;stroke-dasharray:none;stroke-opacity:1;filter:url(#filter5961)"
       d="m 1276.662,131.14983 32.4555,-4.92193 20.1962,-13.38686"
       id="path20120-0"
       sodipodi:nodetypes="ccc"
       inkscape:label="di una - path" /><path
       style="mix-blend-mode:exclusion;fill:none;fill-opacity:1;fill-rule:nonzero;stroke:none;stroke-width:0.710142;stroke-linecap:round;stroke-dasharray:none;stroke-opacity:1"
       d="m 1238.5907,191.82906 40.8998,-27.38725 70.7299,-22.36061 37.7734,4.52333"
       id="path20129-3"
       sodipodi:nodetypes="cccc"
       inkscape:label="puttana - pth" /><text
       xml:space="preserve"
       style="font-style:normal;font-variant:normal;font-weight:300;font-stretch:normal;font-size:25.4597px;line-height:1;font-family:'KC Pelletier Typed';-inkscape-font-specification:'KC Pelletier Typed, Light';font-variant-ligatures:normal;font-variant-caps:normal;font-variant-numeric:normal;font-variant-east-asian:normal;text-align:center;text-anchor:middle;mix-blend-mode:difference;fill:#ffffff;fill-opacity:1;fill-rule:nonzero;stroke:none;stroke-width:0.354373;stroke-linecap:round;stroke-dasharray:none;stroke-opacity:1;filter:url(#filter31419-7)"
       id="text18049-6"
       inkscape:label="le allodole"><textPath
         xlink:href="#path18141-4"
         startOffset="50%"
         id="textPath18143-1"><tspan
           id="tspan18047-0"
           style="stroke-width:0.354373">le allodole</tspan></textPath></text><text
       xml:space="preserve"
       style="font-style:normal;font-variant:normal;font-weight:300;font-stretch:normal;font-size:19.4028px;line-height:1;font-family:'KC Pelletier Typed';-inkscape-font-specification:'KC Pelletier Typed, Light';font-variant-ligatures:normal;font-variant-caps:normal;font-variant-numeric:normal;font-variant-east-asian:normal;text-align:center;text-anchor:middle;mix-blend-mode:difference;fill:#ffffff;fill-opacity:1;fill-rule:nonzero;stroke:none;stroke-width:0.710142;stroke-linecap:round;stroke-dasharray:none;stroke-opacity:1;filter:url(#filter31403-9)"
       id="text19877-6"
       transform="translate(-5.22522,-7.73046)"
       inkscape:label="il lavoro"><textPath
         xlink:href="#path19879-5"
         startOffset="50%"
         id="textPath20038-3"><tspan
           id="tspan19875-2"
           style="font-style:normal;font-variant:normal;font-weight:300;font-stretch:normal;font-size:19.4028px;font-family:'KC Pelletier Typed';-inkscape-font-specification:'KC Pelletier Typed, Light';font-variant-ligatures:normal;font-variant-caps:normal;font-variant-numeric:normal;font-variant-east-asian:normal;stroke-width:0.710142">il lavoro</tspan></textPath></text><text
       xml:space="preserve"
       style="font-style:normal;font-variant:normal;font-weight:300;font-stretch:normal;font-size:17.6389px;line-height:1;font-family:'KC Pelletier Typed';-inkscape-font-specification:'KC Pelletier Typed, Light';font-variant-ligatures:normal;font-variant-caps:normal;font-variant-numeric:normal;font-variant-east-asian:normal;text-align:center;text-anchor:middle;mix-blend-mode:difference;fill:#ffffff;fill-opacity:1;fill-rule:nonzero;stroke:none;stroke-width:0.710142;stroke-linecap:round;stroke-dasharray:none;stroke-opacity:1;filter:url(#filter31407-2)"
       id="text20055-0"
       transform="translate(-5.22522,-6.67212)"
       inkscape:label="di una"><textPath
         xlink:href="#path20120-0"
         startOffset="50%"
         id="textPath20122-6"><tspan
           id="tspan20053-1"
           style="font-style:normal;font-variant:normal;font-weight:300;font-stretch:normal;font-size:17.6389px;font-family:'KC Pelletier Typed';-inkscape-font-specification:'KC Pelletier Typed, Light';font-variant-ligatures:normal;font-variant-caps:normal;font-variant-numeric:normal;font-variant-east-asian:normal;stroke-width:0.710142">di una</tspan></textPath></text><text
       xml:space="preserve"
       style="font-style:normal;font-variant:normal;font-weight:300;font-stretch:normal;font-size:33.5139px;line-height:1;font-family:'KC Pelletier Typed';-inkscape-font-specification:'KC Pelletier Typed, Light';font-variant-ligatures:normal;font-variant-caps:normal;font-variant-numeric:normal;font-variant-east-asian:normal;text-align:center;text-anchor:middle;mix-blend-mode:difference;fill:#ffffff;fill-opacity:1;fill-rule:nonzero;stroke:none;stroke-width:0.710142;stroke-linecap:round;stroke-dasharray:none;stroke-opacity:1;filter:url(#filter31411-9)"
       id="text20127-5"
       transform="translate(-20.04198,-10.37631)"
       inkscape:label="puttana"><textPath
         xlink:href="#path20129-3"
         startOffset="50%"
         id="textPath20131-5"><tspan
           id="tspan20125-4"
           style="font-style:normal;font-variant:normal;font-weight:300;font-stretch:normal;font-size:33.5139px;font-family:'KC Pelletier Typed';-inkscape-font-specification:'KC Pelletier Typed, Light';font-variant-ligatures:normal;font-variant-caps:normal;font-variant-numeric:normal;font-variant-east-asian:normal;fill:#ffffff;fill-opacity:1;stroke-width:0.710142">puttana</tspan></textPath></text><text
       xml:space="preserve"
       style="font-style:normal;font-variant:normal;font-weight:300;font-stretch:normal;font-size:17.6389px;line-height:1;font-family:'KC Pelletier Typed';-inkscape-font-specification:'KC Pelletier Typed, Light';font-variant-ligatures:normal;font-variant-caps:normal;font-variant-numeric:normal;font-variant-east-asian:normal;text-align:center;text-anchor:middle;mix-blend-mode:difference;fill:#ffffff;fill-opacity:1;fill-rule:nonzero;stroke:none;stroke-width:0.710142;stroke-linecap:round;stroke-dasharray:none;stroke-opacity:1;filter:url(#filter31415-3)"
       x="1314.6486"
       y="81.415276"
       id="text20274-7"><tspan
         sodipodi:role="line"
         id="tspan20272-6"
         style="fill:#ffffff;fill-opacity:1;stroke-width:0.710142"
         x="1314.6486"
         y="81.415276">o</tspan></text></g></svg>
